<svg xmlns="http://www.w3.org/2000/svg" viewBox="0 0 64 64" role="img" aria-label="Night city favicon">
  <defs>
    <linearGradient id="sky" x1="0" y1="0" x2="0" y2="1">
      <stop offset="0%" stop-color="#0a1b47"/>
      <stop offset="100%" stop-color="#1f3d7a"/>
    </linearGradient>
    <linearGradient id="water" x1="0" y1="0" x2="0" y2="1">
      <stop offset="0%" stop-color="#13325f"/>
      <stop offset="100%" stop-color="#0a1f42"/>
    </linearGradient>
  </defs>

  <rect width="64" height="64" rx="12" fill="url(#sky)"/>
  <circle cx="15" cy="15" r="5" fill="#f4efcc" opacity="0.95"/>

  <rect y="40" width="64" height="24" fill="url(#water)"/>

  <rect x="7"  y="28" width="7" height="12" fill="#171b28"/>
  <rect x="16" y="24" width="8" height="16" fill="#171b28"/>
  <rect x="26" y="30" width="6" height="10" fill="#171b28"/>
  <rect x="34" y="21" width="9" height="19" fill="#171b28"/>
  <rect x="45" y="26" width="7" height="14" fill="#171b28"/>

  <rect x="18" y="27" width="1.5" height="1.5" fill="#ffd37a"/>
  <rect x="21" y="30" width="1.5" height="1.5" fill="#ffd37a"/>
  <rect x="36" y="25" width="1.5" height="1.5" fill="#ffd37a"/>
  <rect x="39" y="29" width="1.5" height="1.5" fill="#ffd37a"/>
  <rect x="47" y="30" width="1.5" height="1.5" fill="#ffd37a"/>

  <rect x="12" y="46" width="1" height="8" fill="#f4c777" opacity="0.35"/>
  <rect x="22" y="46" width="1" height="10" fill="#f4c777" opacity="0.3"/>
  <rect x="38" y="45" width="1" height="11" fill="#f4c777" opacity="0.35"/>
  <rect x="49" y="47" width="1" height="9" fill="#f4c777" opacity="0.25"/>
</svg>
